<svg width="77" height="80" viewBox="0 0 77 80" fill="none" xmlns="http://www.w3.org/2000/svg">
<path d="M65.9743 59.75H10.2411C8.14603 59.75 6.44104 61.4115 6.44104 63.4531C6.44104 66.855 9.28088 69.625 12.7744 69.625H63.441C66.9345 69.625 69.7744 66.855 69.7744 63.4531C69.7742 61.4114 68.0694 59.75 65.9743 59.75Z" fill="#FFAB01"/>
<path d="M7.77262 36.7084H68.4063C68.723 36.7084 69.0675 36.5496 69.3032 36.3346C69.5337 36.1221 69.6781 35.8328 69.7059 35.5205C70.1164 31.3987 68.6749 27.3664 65.5335 23.8537C59.9094 17.5711 49.4011 13.6667 38.1098 13.6667C26.8009 13.6667 16.2823 17.5787 10.6658 23.8767C7.52434 27.3971 6.09048 31.4345 6.51355 35.5615C6.57949 36.2117 7.12416 36.7084 7.77262 36.7084ZM54.9465 24.2813C55.4404 23.7821 56.2435 23.7821 56.7376 24.2813L59.271 26.8415C59.7649 27.3433 59.7649 28.1522 59.271 28.6515C59.0252 28.9024 58.7009 29.0278 58.3767 29.0278C58.0525 29.0278 57.7281 28.9024 57.4798 28.6515L54.9465 26.0914C54.4525 25.5922 54.4525 24.7831 54.9465 24.2813ZM44.813 29.4017L47.3463 26.8416C47.8403 26.3424 48.6434 26.3424 49.1375 26.8416C49.6314 27.3434 49.6314 28.1523 49.1375 28.6516L46.6041 31.2118C46.3583 31.4627 46.0341 31.5881 45.7098 31.5881C45.3856 31.5881 45.0613 31.4627 44.813 31.2118C44.319 30.7125 44.319 29.9035 44.813 29.4017ZM37.2129 19.161C37.7069 18.6618 38.51 18.6618 39.0041 19.161L41.5374 21.7211C42.0314 22.2229 42.0314 23.0319 41.5374 23.5312C41.2917 23.7821 40.9674 23.9075 40.6432 23.9075C40.3189 23.9075 39.9946 23.7821 39.7463 23.5312L37.2129 20.9711C36.7189 20.4717 36.7189 19.6628 37.2129 19.161ZM27.0794 24.2813L29.6128 21.7211C30.1067 21.222 30.9098 21.222 31.4039 21.7211C31.8979 22.2229 31.8979 23.0319 31.4039 23.5312L28.8706 26.0914C28.6248 26.3423 28.3005 26.4677 27.9763 26.4677C27.6521 26.4677 27.3277 26.3423 27.0794 26.0914C26.5855 25.5922 26.5855 24.7831 27.0794 24.2813ZM16.9459 26.8416C17.4399 26.3424 18.243 26.3424 18.7371 26.8416L21.2704 29.4017C21.7644 29.9035 21.7644 30.7125 21.2704 31.2118C21.0246 31.4627 20.7004 31.5881 20.3761 31.5881C20.0519 31.5881 19.7276 31.4627 19.4793 31.2118L16.9459 28.6516C16.452 28.1523 16.452 27.3434 16.9459 26.8416Z" fill="#FFAB01"/>
<path d="M10.8468 40C10.1603 40 9.60767 40.553 9.60767 41.2344C9.60767 41.9158 10.1603 42.4688 10.8468 42.4688H30.3779L44.9873 49.7442C45.1632 49.833 45.3515 49.875 45.5424 49.875C45.8621 49.875 46.1793 49.7516 46.4172 49.5121L53.4902 42.4688H65.3685C66.0525 42.4688 66.6077 41.9159 66.6077 41.2344C66.6077 40.5531 66.0526 40 65.3685 40H10.8468V40Z" fill="#FFAB01"/>
<path d="M11.5093 56.4585H64.7087C67.7841 56.4585 70.2237 53.7775 69.7044 50.6865C69.2939 48.2597 66.9482 46.5835 64.4249 46.5835H56.673L47.999 55.0366C47.2288 55.7872 46.0508 55.9747 45.0755 55.4983L26.7775 46.5836H11.7904C9.26731 46.5836 6.92143 48.2599 6.51099 50.6867C5.99169 53.7773 8.43381 56.4585 11.5093 56.4585Z" fill="#FFAB01"/>
</svg>
