<svg width="38" height="38" viewBox="0 0 38 38" fill="none" xmlns="http://www.w3.org/2000/svg">
<path d="M19 38C29.4934 38 38 29.4934 38 19C38 8.50659 29.4934 0 19 0C8.50659 0 0 8.50659 0 19C0 29.4934 8.50659 38 19 38Z" fill="#FFAC4B"/>
<path d="M27.2905 18.9936C27.2905 18.4639 27.053 18.0246 26.5462 17.6111L14.3519 7.88185C13.9402 7.54592 13.4492 7.39087 12.8633 7.39087C11.6755 7.39087 10.7095 8.15319 10.7095 9.12224C10.7095 9.6003 10.9629 10.0396 11.3905 10.3885L22.2228 18.9807L11.3905 27.5988C10.9629 27.9476 10.7095 28.374 10.7095 28.865C10.7095 29.8341 11.6755 30.6093 12.8633 30.6093C13.4492 30.6093 13.9402 30.4413 14.3519 30.1054L26.5462 20.3761C27.0688 19.9627 27.2905 19.5234 27.2905 18.9936Z" fill="white" fill-opacity="0.6"/>
</svg>
